<svg width="26" height="25" viewBox="0 0 26 25" fill="none" xmlns="http://www.w3.org/2000/svg">
<path fill-rule="evenodd" clip-rule="evenodd" d="M11.1809 0.742077C12.1919 -0.247359 13.8082 -0.247359 14.8192 0.742077L24.8971 10.6056C25.6525 11.3449 25.8853 12.4679 25.4861 13.4466C25.0869 14.4253 24.135 15.065 23.078 15.065H22.3909V22.3992C22.3909 23.8356 21.2265 25 19.7902 25H15.0728C14.2267 25 13.475 24.596 13.0001 23.9703C12.5251 24.596 11.7734 25 10.9273 25H6.20996C4.77361 25 3.60921 23.8356 3.60921 22.3992V15.065H2.92213C1.86513 15.065 0.913267 14.4253 0.514026 13.4466C0.114786 12.4679 0.34759 11.3449 1.10299 10.6056L3.60921 8.15269V4.1732C3.60921 2.73684 4.77361 1.57244 6.20996 1.57244H8.78305C9.22906 1.57244 9.64884 1.68471 10.0157 1.88253L11.1809 0.742077ZM8.78305 6.72804V4.1732H6.20996V9.24638L2.92213 12.4643H6.20996V22.3992H10.9273V17.0386H15.0728V22.3992H19.7902V12.4643H23.078L13.0001 2.60076L8.78305 6.72804Z" fill="#CAA33D"/>
</svg>
