<svg width="59" height="59" viewBox="0 0 59 59" fill="none" xmlns="http://www.w3.org/2000/svg">
<path d="M29.5 0C13.275 0 0 13.275 0 29.5C0 45.725 13.275 59 29.5 59C45.725 59 59 45.725 59 29.5C59 13.275 45.725 0 29.5 0ZM29.5 7.375C41.7425 7.375 51.625 17.2575 51.625 29.5C51.625 41.7425 41.7425 51.625 29.5 51.625C17.2575 51.625 7.375 41.7425 7.375 29.5C7.375 17.2575 17.2575 7.375 29.5 7.375ZM44.25 14.75L22.125 22.125L14.75 44.25L36.875 36.875L44.25 14.75ZM29.5 25.8125C31.565 25.8125 33.1875 27.435 33.1875 29.5C33.1875 31.565 31.565 33.1875 29.5 33.1875C27.435 33.1875 25.8125 31.565 25.8125 29.5C25.8125 27.435 27.435 25.8125 29.5 25.8125Z" fill="white"/>
</svg>
