<svg xmlns="http://www.w3.org/2000/svg" width="490" height="100" viewBox="0 0 490 100" fill="none">
  <path d="M68.9975 65.8651C68.9975 66.9612 68.2303 67.8928 66.6959 68.66C65.271 69.3176 63.353 69.6464 60.9417 69.6464C58.8593 69.6464 55.5712 69.4272 51.0775 68.9888C46.6934 68.5504 42.0352 67.838 37.1031 66.8516C32.171 65.8651 27.4581 64.6595 22.9643 63.2347C18.5802 61.7002 15.3469 59.8918 13.2645 57.8093C13.4837 58.6862 13.8673 59.8918 14.4153 61.4262C14.9633 62.8511 15.5662 64.4403 16.2238 66.194C17.4294 69.2628 18.5254 72.3865 19.5119 75.565C20.6079 78.6339 21.1559 81.0999 21.1559 82.9632C21.1559 86.4705 20.8819 89.1009 20.3339 90.8546C19.8955 92.7178 18.8542 93.6495 17.2102 93.6495C15.895 93.6495 14.9633 93.1014 14.4153 92.0054C13.8673 90.9094 13.5933 89.5941 13.5933 88.0597C13.5933 87.9501 13.5933 87.6761 13.5933 87.2377C13.5933 86.7993 13.6481 85.5388 13.7577 83.4564C13.7577 82.5796 13.7029 81.7028 13.5933 80.8259C13.4837 79.9491 13.3193 79.1819 13.1001 78.5243C11.3464 74.2498 9.7024 69.9753 8.16796 65.7007C6.74313 61.3166 5.37309 56.4941 4.05786 51.2332C3.72905 50.1371 3.34544 48.7671 2.90703 47.1231C2.57822 45.3694 2.24941 43.1226 1.9206 40.3825C1.5918 37.5328 1.31779 34.0803 1.09858 30.025C0.879378 25.8601 0.769775 20.8184 0.769775 14.8998C0.769775 10.2965 1.15339 6.78924 1.9206 4.37798C2.68782 1.85711 3.61945 0.59668 4.71548 0.59668C5.7019 0.59668 6.52392 1.3639 7.18154 2.89834C7.83916 4.32318 8.16796 5.69321 8.16796 7.00844C8.16796 10.6253 8.11316 13.4202 8.00356 15.3931C8.00356 17.3659 8.00356 18.7907 8.00356 19.6676C8.00356 23.0653 8.16796 26.4629 8.49677 29.8606C8.82558 33.1487 9.20919 36.2176 9.6476 39.0673C10.086 42.3553 10.634 45.479 11.2916 48.4383C12.6069 45.6982 14.0317 42.7938 15.5662 39.7249C17.2102 36.5464 18.909 33.4227 20.6627 30.3538C22.4163 27.1754 24.17 24.0517 25.9236 20.9828C27.6773 17.9139 29.3761 15.0094 31.0201 12.2694C32.1162 10.4061 33.3218 8.81689 34.637 7.50166C36.0619 6.18642 37.3771 5.5288 38.5827 5.5288C39.4596 5.5288 40.446 5.91241 41.542 6.67963C42.638 7.33725 43.1861 8.26887 43.1861 9.4745C43.1861 9.80331 43.1313 10.1869 43.0217 10.6253C42.9121 10.9541 42.8024 11.2281 42.6928 11.4474C42.1448 12.3242 41.4872 13.201 40.72 14.0778C40.0624 14.9546 39.4596 15.8315 38.9115 16.7083C37.1579 19.2292 35.1851 22.0788 32.993 25.2573C30.8009 28.4358 28.7185 31.6143 26.7456 34.7928C24.8824 37.8616 23.2932 40.7661 21.9779 43.5062C20.6627 46.2462 20.0051 48.4383 20.0051 50.0823C20.0051 51.836 21.0463 53.3704 23.1287 54.6857C25.2112 56.0009 27.7869 57.1517 30.8557 58.1381C33.9246 59.015 37.2675 59.7822 40.8844 60.4398C44.6109 60.9878 48.0634 61.481 51.2419 61.9194C54.4203 62.2482 57.1056 62.5223 59.2977 62.7415C61.5993 62.8511 62.8598 62.9059 63.079 62.9059C65.5998 62.9059 67.1891 63.1251 67.8467 63.5635C68.6139 63.8923 68.9975 64.6595 68.9975 65.8651Z" fill="#FFCD4E"/>
  <path d="M123.378 70.7973C123.488 71.0165 123.542 71.3453 123.542 71.7837C123.542 72.4413 123.049 73.4277 122.063 74.743C121.734 75.1814 121.022 75.8938 119.926 76.8802C118.83 77.8667 117.35 78.8531 115.487 79.8395C113.623 80.8259 111.322 81.7028 108.582 82.47C105.951 83.2372 102.828 83.6208 99.2106 83.6208C96.6898 83.6208 94.2237 83.0728 91.8125 81.9768C89.4012 80.7711 87.2639 79.0723 85.4007 76.8802C83.5374 74.5786 82.003 71.7837 80.7974 68.4956C79.5917 65.0979 78.9889 61.1522 78.9889 56.6585C78.9889 52.384 79.5369 48.3835 80.633 44.657C81.729 40.9305 83.099 37.6424 84.7431 34.7928C86.4967 31.9431 88.4148 29.6962 90.4972 28.0522C92.5797 26.4081 94.6073 25.5861 96.5802 25.5861C98.3338 25.5861 100.087 25.9697 101.841 26.7369C103.704 27.3946 105.348 28.2714 106.773 29.3674C108.308 30.4634 109.513 31.7239 110.39 33.1487C111.267 34.4639 111.705 35.834 111.705 37.2588C111.705 38.9029 110.938 40.6017 109.404 42.3553C107.979 44.109 106.225 45.753 104.143 47.2875C102.06 48.7123 99.9779 49.9179 97.8954 50.9044C95.813 51.7812 94.1689 52.2196 92.9633 52.2196C92.3057 52.2196 91.7029 51.9456 91.1548 51.3976C90.7164 50.74 90.4972 49.9727 90.4972 49.0959C90.4972 47.5615 91.1548 46.3558 92.4701 45.479C93.8949 44.6022 95.4293 43.835 97.0734 43.1774C98.7174 42.4101 100.197 41.5333 101.512 40.5469C102.937 39.5605 103.65 38.1904 103.65 36.4368C103.65 36.2176 103.376 35.6696 102.828 34.7928C102.28 33.9159 100.8 33.4775 98.3886 33.4775C97.2926 33.4775 96.0322 34.1351 94.6073 35.4504C93.1825 36.656 91.8124 38.3548 90.4972 40.5469C89.182 42.6293 88.086 45.1502 87.2091 48.1095C86.3323 50.9592 85.8939 54.0828 85.8939 57.4805C85.8939 60.3302 86.3871 62.9059 87.3735 65.2075C88.4696 67.5092 89.8396 69.482 91.4836 71.1261C93.1277 72.6605 95.0457 73.8661 97.2378 74.743C99.4298 75.6198 101.677 76.0582 103.978 76.0582C105.622 76.0582 107.376 75.7294 109.239 75.0718C111.212 74.3046 113.021 73.5373 114.665 72.7701C116.418 71.8933 117.898 71.1261 119.104 70.4685C120.419 69.7012 121.241 69.3176 121.57 69.3176C121.898 69.3176 122.227 69.482 122.556 69.8108C122.994 70.1397 123.268 70.4685 123.378 70.7973Z" fill="#FFCD4E"/>
  <path d="M225.742 95.6223C225.742 96.3895 225.467 97.2115 224.919 98.0884C224.371 98.9652 223.604 99.4036 222.618 99.4036C222.07 99.4036 221.467 99.2392 220.809 98.9104C216.864 97.0471 212.26 95.5127 206.999 94.3071C201.738 93.211 196.313 92.2246 190.723 91.3478C185.243 90.471 179.873 89.4846 174.612 88.3885C169.351 87.4021 164.748 86.0869 160.802 84.4428C161.459 85.8677 162.117 87.0185 162.775 87.8953C163.432 88.7721 163.98 89.5393 164.419 90.197C164.967 90.8546 165.405 91.4574 165.734 92.0054C166.063 92.663 166.227 93.485 166.227 94.4715C166.227 95.3483 165.898 96.0059 165.241 96.4443C164.583 96.8827 163.926 97.1019 163.268 97.1019C161.953 97.1019 160.528 96.2799 158.993 94.6359C157.569 92.9918 156.089 90.9094 154.554 88.3885C153.02 85.8677 151.486 83.0728 149.951 80.0039C148.526 76.8254 147.211 73.7565 146.005 70.7973C144.8 67.838 143.759 65.1527 142.882 62.7415C142.005 60.2206 141.402 58.3026 141.073 56.9873L133.84 28.0522C133.84 27.7234 133.894 27.285 134.004 26.7369C134.223 26.1889 134.662 25.6409 135.319 25.0929C134.881 24.2161 134.662 23.2845 134.662 22.298C134.662 19.2292 136.415 16.4343 139.923 13.9134C143.43 11.2829 147.65 9.09089 152.582 7.33725C157.623 5.474 162.884 4.04917 168.364 3.06274C173.845 2.07631 178.503 1.5831 182.339 1.5831C183.435 1.5831 185.079 1.6927 187.271 1.91191C189.463 2.02151 191.6 2.40513 193.683 3.06274C195.875 3.72036 197.738 4.76158 199.272 6.18642C200.916 7.50165 201.738 9.3649 201.738 11.7762C201.738 14.0778 200.533 16.7083 198.122 19.6676C195.82 22.6268 192.915 25.7505 189.408 29.0386C185.901 32.3267 182.12 35.7244 178.064 39.2317C174.009 42.6294 170.228 46.0818 166.72 49.5891C163.213 52.9868 160.254 56.3297 157.843 59.6178C155.541 62.7963 154.39 65.7555 154.39 68.4956C154.39 70.5781 155.267 72.4413 157.021 74.0854C158.884 75.6198 161.185 76.9898 163.926 78.1955C166.666 79.4011 169.625 80.4423 172.803 81.3191C176.091 82.196 179.16 82.9084 182.01 83.4564C184.969 84.0044 187.49 84.4428 189.573 84.7716C191.765 84.9908 193.08 85.1004 193.518 85.1004C194.943 85.1004 197.409 85.2648 200.916 85.5936C204.424 85.9225 207.986 86.5253 211.603 87.4021C215.329 88.1693 218.617 89.2105 221.467 90.5258C224.317 91.841 225.742 93.5399 225.742 95.6223ZM194.011 11.9406C194.011 11.1733 193.628 10.5157 192.861 9.96772C192.093 9.3101 191.052 8.81688 189.737 8.48808C188.531 8.04966 187.161 7.77566 185.627 7.66606C184.202 7.44685 182.777 7.33725 181.352 7.33725C179.16 7.33725 176.53 7.66606 173.461 8.32368C170.392 8.98129 167.268 9.80331 164.09 10.7897C161.021 11.7762 158.171 12.7626 155.541 13.749C152.91 14.7354 150.992 15.5575 149.787 16.2151C147.485 17.5303 145.238 19.0099 143.046 20.654C140.854 22.1884 139.758 23.7229 139.758 25.2573C139.758 25.4765 139.923 25.6957 140.251 25.9149C140.58 26.1341 140.745 26.5177 140.745 27.0658C140.745 27.7234 141.073 29.4222 141.731 32.1623C142.389 34.7928 143.156 37.8068 144.033 41.2045C144.909 44.4926 145.841 47.7807 146.827 51.0688C147.924 54.3568 148.91 56.9873 149.787 58.9602C154.28 52.6032 159.103 47.0683 164.254 42.3553C169.515 37.5328 174.338 33.3131 178.722 29.6962C183.106 25.9697 186.723 22.7364 189.573 19.9964C192.532 17.1467 194.011 14.4614 194.011 11.9406Z" fill="#FFCD4E"/>
  <path d="M264.823 70.7973C264.933 71.0165 264.988 71.3453 264.988 71.7837C264.988 72.4413 264.495 73.4277 263.508 74.743C263.179 75.1814 262.467 75.8938 261.371 76.8802C260.275 77.8667 258.795 78.8531 256.932 79.8395C255.069 80.8259 252.767 81.7028 250.027 82.47C247.397 83.2372 244.273 83.6208 240.656 83.6208C238.135 83.6208 235.669 83.0728 233.258 81.9768C230.847 80.7711 228.709 79.0723 226.846 76.8802C224.983 74.5786 223.448 71.7837 222.243 68.4956C221.037 65.0979 220.434 61.1522 220.434 56.6585C220.434 52.384 220.982 48.3835 222.078 44.657C223.174 40.9305 224.544 37.6424 226.188 34.7928C227.942 31.9431 229.86 29.6962 231.943 28.0522C234.025 26.4081 236.053 25.5861 238.026 25.5861C239.779 25.5861 241.533 25.9697 243.287 26.7369C245.15 27.3946 246.794 28.2714 248.219 29.3674C249.753 30.4634 250.959 31.7239 251.836 33.1487C252.712 34.4639 253.151 35.834 253.151 37.2588C253.151 38.9029 252.384 40.6017 250.849 42.3553C249.424 44.109 247.671 45.753 245.588 47.2875C243.506 48.7123 241.423 49.9179 239.341 50.9044C237.258 51.7812 235.614 52.2196 234.409 52.2196C233.751 52.2196 233.148 51.9456 232.6 51.3976C232.162 50.74 231.943 49.9727 231.943 49.0959C231.943 47.5615 232.6 46.3558 233.915 45.479C235.34 44.6022 236.875 43.835 238.519 43.1774C240.163 42.4101 241.642 41.5333 242.958 40.5469C244.383 39.5605 245.095 38.1904 245.095 36.4368C245.095 36.2176 244.821 35.6696 244.273 34.7928C243.725 33.9159 242.245 33.4775 239.834 33.4775C238.738 33.4775 237.478 34.1351 236.053 35.4504C234.628 36.656 233.258 38.3548 231.943 40.5469C230.627 42.6293 229.531 45.1502 228.655 48.1095C227.778 50.9592 227.339 54.0828 227.339 57.4805C227.339 60.3302 227.833 62.9059 228.819 65.2075C229.915 67.5092 231.285 69.482 232.929 71.1261C234.573 72.6605 236.491 73.8661 238.683 74.743C240.875 75.6198 243.122 76.0582 245.424 76.0582C247.068 76.0582 248.821 75.7294 250.685 75.0718C252.658 74.3046 254.466 73.5373 256.11 72.7701C257.864 71.8933 259.343 71.1261 260.549 70.4685C261.864 69.7012 262.686 69.3176 263.015 69.3176C263.344 69.3176 263.673 69.482 264.001 69.8108C264.44 70.1397 264.714 70.4685 264.823 70.7973Z" fill="#FFCD4E"/>
  <path d="M325.757 67.838C325.757 68.4956 325.538 69.1532 325.099 69.8108C324.661 70.4685 324.113 71.0713 323.455 71.6193C322.907 72.1673 322.25 72.6605 321.483 73.0989C320.825 73.4277 320.222 73.5921 319.674 73.5921C317.811 73.5921 315.4 73.2085 312.44 72.4413C309.591 71.5645 307.289 70.2493 305.535 68.4956C303.672 66.6324 302.028 64.4403 300.603 61.9194C299.178 59.289 297.589 55.4529 295.835 50.4111C294.63 55.2337 293.205 60.0014 291.561 64.7143C290.027 69.4272 287.506 73.7565 283.998 77.7022C283.779 77.9215 283.45 78.0311 283.012 78.0311C282.245 78.0311 281.423 77.6474 280.546 76.8802C279.669 76.113 279.231 75.3458 279.231 74.5786C279.231 73.8113 279.121 72.0577 278.902 69.3176C278.792 66.468 278.628 63.3443 278.409 59.9466C278.189 56.4393 277.97 52.932 277.751 49.4247C277.641 45.8078 277.587 42.8486 277.587 40.5469C277.587 39.4509 277.641 38.026 277.751 36.2724C277.861 34.4091 278.189 32.8199 278.737 31.5047C278.847 31.2855 279.231 30.847 279.888 30.1894C280.655 29.5318 281.478 29.203 282.354 29.203C283.122 29.203 283.56 29.6962 283.67 30.6826C283.779 31.6691 283.834 32.7651 283.834 33.9707V59.9466C283.834 60.4946 283.889 61.2618 283.998 62.2483C284.218 63.2347 284.492 63.9471 284.82 64.3855C286.026 61.755 287.122 58.6862 288.108 55.1789C289.205 51.562 290.246 48.1643 291.232 44.9858C292.219 41.6977 293.205 38.9577 294.191 36.7656C295.178 34.4639 296.164 33.3131 297.151 33.3131C298.247 33.3131 299.124 33.5323 299.781 33.9707C300.439 34.4091 300.987 35.286 301.425 36.6012C301.973 39.7797 302.412 42.6293 302.74 45.1502C303.069 47.5615 303.453 49.7535 303.891 51.7264C304.439 53.6992 305.152 55.5625 306.029 57.3161C307.015 58.9602 308.33 60.4946 309.974 61.9194C311.509 63.3443 313.208 64.3855 315.071 65.0431C317.044 65.7007 318.742 66.0295 320.167 66.0295C320.825 66.0295 321.537 65.9199 322.305 65.7007C323.072 65.3719 323.62 65.2075 323.949 65.2075C324.387 65.2075 324.771 65.5911 325.099 66.3584C325.538 67.1256 325.757 67.6188 325.757 67.838Z" fill="#FFCD4E"/>
  <path d="M402.462 65.8651C402.462 66.9612 401.695 67.8928 400.16 68.66C398.735 69.3176 396.817 69.6464 394.406 69.6464C392.324 69.6464 389.036 69.4272 384.542 68.9888C380.158 68.5504 375.5 67.838 370.567 66.8516C365.635 65.8651 360.922 64.6595 356.429 63.2347C352.045 61.7002 348.811 59.8918 346.729 57.8093C346.948 58.6862 347.332 59.8918 347.88 61.4262C348.428 62.8511 349.03 64.4403 349.688 66.194C350.894 69.2628 351.99 72.3865 352.976 75.565C354.072 78.6339 354.62 81.0999 354.62 82.9632C354.62 86.4705 354.346 89.1009 353.798 90.8546C353.36 92.7178 352.319 93.6495 350.675 93.6495C349.359 93.6495 348.428 93.1014 347.88 92.0054C347.332 90.9094 347.058 89.5941 347.058 88.0597C347.058 87.9501 347.058 87.6761 347.058 87.2377C347.058 86.7993 347.112 85.5388 347.222 83.4564C347.222 82.5796 347.167 81.7028 347.058 80.8259C346.948 79.9491 346.784 79.1819 346.564 78.5243C344.811 74.2498 343.167 69.9753 341.632 65.7007C340.207 61.3166 338.837 56.4941 337.522 51.2332C337.193 50.1371 336.81 48.7671 336.371 47.1231C336.043 45.3694 335.714 43.1226 335.385 40.3825C335.056 37.5328 334.782 34.0803 334.563 30.025C334.344 25.8601 334.234 20.8184 334.234 14.8998C334.234 10.2965 334.618 6.78924 335.385 4.37798C336.152 1.85711 337.084 0.59668 338.18 0.59668C339.166 0.59668 339.988 1.3639 340.646 2.89834C341.304 4.32318 341.632 5.69321 341.632 7.00844C341.632 10.6253 341.578 13.4202 341.468 15.3931C341.468 17.3659 341.468 18.7907 341.468 19.6676C341.468 23.0653 341.632 26.4629 341.961 29.8606C342.29 33.1487 342.674 36.2176 343.112 39.0673C343.55 42.3553 344.098 45.479 344.756 48.4383C346.071 45.6982 347.496 42.7938 349.031 39.7249C350.675 36.5464 352.373 33.4227 354.127 30.3538C355.881 27.1754 357.634 24.0517 359.388 20.9828C361.142 17.9139 362.84 15.0094 364.484 12.2694C365.581 10.4061 366.786 8.81689 368.101 7.50166C369.526 6.18642 370.841 5.5288 372.047 5.5288C372.924 5.5288 373.91 5.91241 375.006 6.67963C376.102 7.33725 376.65 8.26887 376.65 9.4745C376.65 9.80331 376.596 10.1869 376.486 10.6253C376.376 10.9541 376.267 11.2281 376.157 11.4474C375.609 12.3242 374.952 13.201 374.184 14.0778C373.527 14.9546 372.924 15.8315 372.376 16.7083C370.622 19.2292 368.649 22.0788 366.457 25.2573C364.265 28.4358 362.183 31.6143 360.21 34.7928C358.347 37.8616 356.758 40.7661 355.442 43.5062C354.127 46.2462 353.469 48.4383 353.469 50.0823C353.469 51.836 354.511 53.3704 356.593 54.6857C358.676 56.0009 361.251 57.1517 364.32 58.1381C367.389 59.015 370.732 59.7822 374.349 60.4398C378.075 60.9878 381.528 61.481 384.706 61.9194C387.885 62.2482 390.57 62.5223 392.762 62.7415C395.064 62.8511 396.324 62.9059 396.543 62.9059C399.064 62.9059 400.653 63.1251 401.311 63.5635C402.078 63.8923 402.462 64.6595 402.462 65.8651Z" fill="#FFCD4E"/>
  <path d="M489.23 53.8636C489.23 55.8365 488.298 58.3025 486.435 61.2618C484.682 64.1115 482.27 66.9064 479.201 69.6464C476.133 72.3865 472.57 74.743 468.515 76.7158C464.46 78.5791 460.24 79.5107 455.856 79.5107C453.883 79.5107 451.801 79.1819 449.609 78.5243C447.417 77.8667 445.279 76.935 443.197 75.7294C441.114 74.4142 439.251 72.8797 437.607 71.1261C435.963 69.2628 434.757 67.1804 433.99 64.8787C433.333 65.5363 432.511 66.6324 431.524 68.1668C430.647 69.7012 429.661 71.2905 428.565 72.9345C427.469 74.469 426.263 75.839 424.948 77.0446C423.633 78.1407 422.263 78.6887 420.838 78.6887C419.413 78.6887 418.207 77.9762 417.221 76.5514C416.344 75.017 415.632 73.3729 415.084 71.6193C414.536 69.756 414.152 68.0024 413.933 66.3584C413.714 64.7143 413.604 63.7827 413.604 63.5635C413.604 62.2482 413.988 59.7822 414.755 56.1653C415.522 52.4388 416.673 48.6027 418.207 44.657C419.742 40.7113 421.66 37.204 423.962 34.1351C426.373 31.0663 429.168 29.5318 432.346 29.5318C433.552 29.5318 434.319 30.0798 434.648 31.1759C435.086 32.1623 435.305 33.1487 435.305 34.1351V39.0673C435.853 39.5057 436.402 39.8345 436.95 40.0537C437.607 40.1633 438.155 40.3825 438.594 40.7113C439.142 40.9305 439.525 41.3141 439.744 41.8621C440.073 42.4101 440.238 43.287 440.238 44.4926C440.238 45.2598 440.183 45.9722 440.073 46.6299C439.964 47.1779 439.909 47.7259 439.909 48.2739C439.909 51.1236 440.128 53.9184 440.566 56.6585C441.005 59.3986 441.882 61.8646 443.197 64.0567C444.512 66.1391 446.321 67.8928 448.622 69.3176C450.924 70.6329 453.993 71.2905 457.829 71.2905C462.651 71.2905 466.707 70.3041 469.995 68.3312C473.392 66.2488 476.187 64.0019 478.379 61.5906C480.681 59.0698 482.489 56.8229 483.805 54.8501C485.12 52.7676 486.216 51.7264 487.093 51.7264C488.518 51.7264 489.23 52.4388 489.23 53.8636ZM431.524 46.6299C431.524 46.1914 431.415 45.8078 431.195 45.479C430.976 45.0406 430.867 44.657 430.867 44.3282C430.867 43.8898 430.976 43.5062 431.195 43.1774C431.415 42.8486 431.524 42.4101 431.524 41.8621C431.524 41.5333 431.415 41.3141 431.195 41.2045C430.976 40.9853 430.867 40.7661 430.867 40.5469C429.88 40.7661 428.839 41.6977 427.743 43.3418C426.756 44.9858 425.77 46.9039 424.784 49.0959C423.907 51.288 423.194 53.5348 422.646 55.8365C422.098 58.0285 421.824 59.837 421.824 61.2618C421.824 62.029 422.044 63.2895 422.482 65.0431C422.92 66.7968 423.414 67.9476 423.962 68.4956C425.825 64.6595 427.524 60.933 429.058 57.3161C430.702 53.6992 431.524 50.1371 431.524 46.6299Z" fill="#FFCD4E"/>
</svg>