<svg width="97" height="40" viewBox="0 0 97 40" fill="none" xmlns="http://www.w3.org/2000/svg">
<path d="M49.6405 16.4715V7.21558H51.6031V14.8507H55.3574V16.4715H49.6405ZM65.373 11.8309C65.373 12.5442 65.2844 13.1941 65.1071 13.7808C64.9299 14.3633 64.6597 14.8655 64.2968 15.2876C63.938 15.7096 63.4822 16.0346 62.9293 16.2625C62.3764 16.4862 61.7222 16.5981 60.9667 16.5981C60.2112 16.5981 59.557 16.4862 59.0041 16.2625C58.4512 16.0346 57.9932 15.7096 57.6302 15.2876C57.2715 14.8655 57.0035 14.3611 56.8262 13.7745C56.6489 13.1878 56.5603 12.5357 56.5603 11.8182C56.5603 10.8601 56.7165 10.0265 57.0288 9.31746C57.3453 8.60417 57.8307 8.05127 58.4849 7.65875C59.1391 7.26623 59.9706 7.06997 60.9793 7.06997C61.9838 7.06997 62.809 7.26623 63.4547 7.65875C64.1047 8.05127 64.5859 8.60417 64.8982 9.31746C65.2147 10.0308 65.373 10.8686 65.373 11.8309ZM58.6179 11.8309C58.6179 12.4766 58.6981 13.0337 58.8584 13.5022C59.0231 13.9665 59.2784 14.3253 59.6245 14.5785C59.9706 14.8275 60.418 14.952 60.9667 14.952C61.5238 14.952 61.9754 14.8275 62.3215 14.5785C62.6676 14.3253 62.9187 13.9665 63.0749 13.5022C63.2353 13.0337 63.3155 12.4766 63.3155 11.8309C63.3155 10.8601 63.134 10.0962 62.771 9.53905C62.408 8.98192 61.8108 8.70336 60.9793 8.70336C60.4264 8.70336 59.9748 8.82998 59.6245 9.08322C59.2784 9.33224 59.0231 9.69099 58.8584 10.1595C58.6981 10.6238 58.6179 11.1809 58.6179 11.8309ZM74.9708 11.7549C74.9708 12.7974 74.7703 13.669 74.3693 14.3696C73.9726 15.066 73.3965 15.5915 72.641 15.946C71.8855 16.2963 70.9759 16.4715 69.9123 16.4715H67.2913V7.21558H70.1972C71.168 7.21558 72.01 7.38863 72.7233 7.73472C73.4366 8.07659 73.9895 8.58518 74.382 9.26048C74.7745 9.93157 74.9708 10.763 74.9708 11.7549ZM72.9322 11.8055C72.9322 11.1218 72.8309 10.5604 72.6283 10.1215C72.4299 9.67833 72.1345 9.35123 71.742 9.1402C71.3537 8.92916 70.8725 8.82365 70.2985 8.82365H69.2539V14.8507H70.0959C71.054 14.8507 71.7652 14.5954 72.2295 14.0847C72.698 13.574 72.9322 12.8143 72.9322 11.8055ZM85.2903 11.8309C85.2903 12.5442 85.2016 13.1941 85.0244 13.7808C84.8471 14.3633 84.577 14.8655 84.214 15.2876C83.8553 15.7096 83.3994 16.0346 82.8465 16.2625C82.2936 16.4862 81.6394 16.5981 80.8839 16.5981C80.1284 16.5981 79.4742 16.4862 78.9213 16.2625C78.3684 16.0346 77.9105 15.7096 77.5475 15.2876C77.1887 14.8655 76.9207 14.3611 76.7435 13.7745C76.5662 13.1878 76.4776 12.5357 76.4776 11.8182C76.4776 10.8601 76.6337 10.0265 76.946 9.31746C77.2626 8.60417 77.748 8.05127 78.4022 7.65875C79.0564 7.26623 79.8878 7.06997 80.8966 7.06997C81.9011 7.06997 82.7262 7.26623 83.372 7.65875C84.022 8.05127 84.5031 8.60417 84.8154 9.31746C85.132 10.0308 85.2903 10.8686 85.2903 11.8309ZM78.5351 11.8309C78.5351 12.4766 78.6153 13.0337 78.7757 13.5022C78.9403 13.9665 79.1957 14.3253 79.5417 14.5785C79.8878 14.8275 80.3352 14.952 80.8839 14.952C81.441 14.952 81.8926 14.8275 82.2387 14.5785C82.5848 14.3253 82.836 13.9665 82.9921 13.5022C83.1525 13.0337 83.2327 12.4766 83.2327 11.8309C83.2327 10.8601 83.0512 10.0962 82.6882 9.53905C82.3253 8.98192 81.728 8.70336 80.8966 8.70336C80.3437 8.70336 79.8921 8.82998 79.5417 9.08322C79.1957 9.33224 78.9403 9.69099 78.7757 10.1595C78.6153 10.6238 78.5351 11.1809 78.5351 11.8309ZM94.6538 16.4715H92.4253L90.0005 12.5716L89.1712 13.1667V16.4715H87.2086V7.21558H89.1712V11.451C89.302 11.2695 89.4307 11.088 89.5573 10.9065C89.684 10.7251 89.8127 10.5436 89.9435 10.3621L92.4506 7.21558H94.6285L91.3997 11.3117L94.6538 16.4715Z" fill="#87D65E"/>
<path d="M53.5595 33.4749L51.331 26.2133H51.274C51.2824 26.3863 51.2951 26.648 51.312 26.9983C51.3331 27.3444 51.3521 27.7137 51.369 28.1062C51.3858 28.4987 51.3943 28.8533 51.3943 29.1698V33.4749H49.6406V24.219H52.3123L54.5028 31.297H54.5408L56.8643 24.219H59.5359V33.4749H57.7063V29.0938C57.7063 28.8026 57.7105 28.4671 57.7189 28.0872C57.7316 27.7074 57.7464 27.3465 57.7632 27.0046C57.7801 26.6585 57.7928 26.399 57.8012 26.2259H57.7443L55.3575 33.4749H53.5595ZM67.5383 33.4749L66.8672 31.2717H63.4928L62.8217 33.4749H60.7072L63.9739 24.181H66.3734L69.6528 33.4749H67.5383ZM66.3987 29.6257L65.7276 27.4731C65.6854 27.3296 65.6284 27.146 65.5567 26.9223C65.4892 26.6944 65.4195 26.4644 65.3478 26.2322C65.2802 25.9959 65.2254 25.7912 65.1832 25.6181C65.1409 25.7912 65.0819 26.0064 65.0059 26.2639C64.9341 26.5171 64.8645 26.7577 64.797 26.9856C64.7294 27.2135 64.6809 27.376 64.6514 27.4731L63.9866 29.6257H66.3987ZM70.8241 24.219H73.7046C74.9371 24.219 75.8698 24.392 76.5029 24.7381C77.136 25.0842 77.4526 25.692 77.4526 26.5615C77.4526 26.9118 77.3956 27.2283 77.2816 27.5111C77.1719 27.7939 77.0115 28.026 76.8005 28.2075C76.5895 28.389 76.332 28.5072 76.0281 28.562V28.6254C76.3362 28.6887 76.6148 28.7984 76.8638 28.9546C77.1128 29.1065 77.3112 29.3302 77.4589 29.6257C77.6109 29.9169 77.6868 30.3052 77.6868 30.7906C77.6868 31.3519 77.5497 31.8331 77.2753 32.234C77.001 32.635 76.6085 32.9431 76.0978 33.1583C75.5913 33.3694 74.9877 33.4749 74.2871 33.4749H70.8241V24.219ZM72.7867 27.8846H73.9262C74.496 27.8846 74.8906 27.796 75.1101 27.6187C75.3296 27.4372 75.4393 27.1713 75.4393 26.821C75.4393 26.4665 75.3085 26.2133 75.0468 26.0613C74.7894 25.9051 74.38 25.8271 73.8186 25.8271H72.7867V27.8846ZM72.7867 29.4421V31.8542H74.0655C74.6564 31.8542 75.0679 31.7402 75.3001 31.5123C75.5322 31.2844 75.6483 30.9784 75.6483 30.5943C75.6483 30.3664 75.5976 30.1659 75.4963 29.9928C75.395 29.8198 75.2241 29.6847 74.9835 29.5877C74.7471 29.4906 74.42 29.4421 74.0022 29.4421H72.7867ZM85.2017 33.4749L84.5306 31.2717H81.1562L80.4851 33.4749H78.3706L81.6374 24.181H84.0368L87.3162 33.4749H85.2017ZM84.0621 29.6257L83.391 27.4731C83.3488 27.3296 83.2919 27.146 83.2201 26.9223C83.1526 26.6944 83.0829 26.4644 83.0112 26.2322C82.9436 25.9959 82.8888 25.7912 82.8466 25.6181C82.8044 25.7912 82.7453 26.0064 82.6693 26.2639C82.5976 26.5171 82.5279 26.7577 82.4604 26.9856C82.3929 27.2135 82.3443 27.376 82.3148 27.4731L81.65 29.6257H84.0621ZM91.1845 24.219C92.0244 24.219 92.7166 24.3203 93.261 24.5229C93.8097 24.7255 94.217 25.0315 94.4829 25.4409C94.7488 25.8503 94.8818 26.3673 94.8818 26.992C94.8818 27.414 94.8016 27.7833 94.6412 28.0999C94.4808 28.4164 94.2698 28.6844 94.0081 28.9039C93.7464 29.1234 93.4636 29.3028 93.1597 29.4421L95.8821 33.4749H93.7042L91.4947 29.9232H90.4501V33.4749H88.4875V24.219H91.1845ZM91.0452 25.8271H90.4501V28.3278H91.0832C91.7332 28.3278 92.1974 28.2202 92.476 28.0049C92.7588 27.7854 92.9002 27.4647 92.9002 27.0426C92.9002 26.6037 92.7482 26.2913 92.4443 26.1056C92.1447 25.9199 91.6783 25.8271 91.0452 25.8271Z" fill="#87D65E"/>
<path d="M25.9791 21.5751L30.0049 39.5406C26.7104 36.8486 24.9467 36.8381 21.9533 39.5406L25.9791 21.5751Z" fill="#87D65E"/>
<path d="M27.588 21.0674L36.5586 29.226C31.8233 28.562 30.9336 29.8143 30.2669 32.8935L27.588 21.0674Z" fill="#87D65E"/>
<path d="M28.1405 20.3537L46.118 23.2131C41.8996 25.4144 41.2658 27.1239 42.9427 30.949L28.1405 20.3537Z" fill="#87D65E"/>
<path d="M24.6395 20.1773L1.35056 28.35C2.67575 24.6339 2.61208 22.5345 0 18.7409L24.6395 20.1773Z" fill="#87D65E"/>
<path d="M24.6588 19.1017L6.6899 16.1885C9.16517 13.7921 10.3095 12.3253 9.88831 8.46212L24.6588 19.1017Z" fill="#87D65E"/>
<path d="M28.2051 19.3873L45.2844 13.089C42.4238 16.4855 42.9008 18.2908 46.2982 21.3895L28.2051 19.3873Z" fill="#87D65E"/>
<path d="M24.9414 18.1876L14.6603 8.45952C17.4672 8.82118 18.3281 8.13906 18.7184 5.47496L24.9414 18.1876Z" fill="#87D65E"/>
<path d="M21.9533 0C25.0977 3.44286 26.8604 4.07013 30.0049 0L28.1727 8.1761L25.9791 17.9655L23.7854 8.1761L21.9533 0Z" fill="#87D65E"/>
<path fill-rule="evenodd" clip-rule="evenodd" d="M31.9587 9.71567C29.4298 13.7007 27.2947 18.1596 27.2947 18.1596C27.2947 18.1596 31.8679 16.1687 36.0605 14.0059C35.7824 11.2559 35.2169 10.4083 31.9587 9.71567Z" fill="#FFCD4E"/>
<path fill-rule="evenodd" clip-rule="evenodd" d="M22.2128 27.9553C24.0583 24.5886 25.1558 21.1903 25.1558 21.1903C25.1558 21.1903 21.4389 22.6404 17.844 24.5895C18.1801 27.1026 19.2418 27.7485 22.2128 27.9553ZM21.6503 28.9388C18.3736 28.7459 17.2122 28.0166 16.8473 25.1455C14.7987 26.3227 12.9107 27.6374 11.9278 28.9052C9.089 32.5668 12.0712 36.456 16.9291 34.0387C18.743 33.136 20.3494 31.1159 21.6503 28.9388Z" fill="#FFCD4E"/>
<path d="M42.7266 9.67293C44.3618 7.19271 41.0589 2.23382 37.275 3.72635C35.8962 4.27023 34.1969 6.3343 32.594 8.73843C36.4122 9.42728 36.7163 10.8938 37.3203 13.3439C39.9027 11.9595 42.1285 10.5803 42.7266 9.67293Z" fill="#FFCD4E"/>
</svg>
