<svg width="59" height="59" viewBox="0 0 59 59" fill="none" xmlns="http://www.w3.org/2000/svg">
<path d="M-0.00830078 0.0736579V59H58.918V41.4694C59.0383 40.936 59.0383 40.3824 58.918 39.8489V0H-0.00830078V0.0736579ZM7.35749 7.43945H51.5522V36.9026H40.5036C40.283 36.8827 40.0612 36.8827 39.8406 36.9026C38.8639 36.9905 37.962 37.4629 37.3335 38.2157C36.705 38.9685 36.4013 39.9402 36.4892 40.917C36.5771 41.8937 37.0494 42.7956 37.8023 43.4241C38.5551 44.0526 39.5268 44.3563 40.5036 44.2684H51.5522V51.6342H7.35749V7.43945ZM25.772 14.8052C19.6584 14.8052 14.7233 19.7403 14.7233 25.8539C14.7233 33.2197 25.772 44.2684 25.772 44.2684C25.772 44.2684 36.8207 33.2197 36.8207 25.8539C36.8207 19.7403 31.8856 14.8052 25.772 14.8052ZM25.772 22.171C27.8344 22.171 29.4549 23.7915 29.4549 25.8539C29.4549 27.9164 27.8344 29.5368 25.772 29.5368C23.7096 29.5368 22.0891 27.9164 22.0891 25.8539C22.0891 23.7915 23.7096 22.171 25.772 22.171Z" fill="white"/>
</svg>
