<svg width="61" height="61" viewBox="0 0 61 61" fill="none" xmlns="http://www.w3.org/2000/svg">
<g id="Group">
<path id="Vector" d="M58.6627 47.9288L40.5107 29.7724C43.9166 22.04 42.4592 12.6645 36.1361 6.3398C27.8977 -1.90047 14.5627 -1.90158 6.32333 6.3398C-1.8957 14.5607 -1.8957 27.9372 6.32333 36.1581C12.8546 42.6908 22.4263 43.9347 30.0674 40.4022L48.1267 58.4658C51.0383 61.378 55.7517 61.3783 58.6633 58.4651C61.567 55.5601 61.5667 50.8336 58.6627 47.9288ZM9.68663 32.7955C3.32133 26.4287 3.32133 16.0693 9.68663 9.70247C16.066 3.32148 26.3921 3.32037 32.7727 9.70247C39.1379 16.0693 39.1379 26.4287 32.7727 32.7955C26.3931 39.1766 16.067 39.1776 9.68663 32.7955ZM55.2995 55.1029C54.2469 56.1561 52.5429 56.1565 51.49 55.1031L34.2361 37.8451C35.6543 36.7287 36.9183 35.4468 38.0158 34.0038L55.2992 51.2913C56.3498 52.3422 56.35 54.052 55.2995 55.1029Z" fill="white"/>
</g>
</svg>
